<?xml version="1.0" standalone="no"?><!DOCTYPE svg PUBLIC "-//W3C//DTD SVG 1.1//EN" "http://www.w3.org/Graphics/SVG/1.1/DTD/svg11.dtd"><svg t="1639186876402" class="icon" viewBox="0 0 1024 1024" version="1.1" xmlns="http://www.w3.org/2000/svg" p-id="4259" xmlns:xlink="http://www.w3.org/1999/xlink" width="25" height="25"><defs><style type="text/css"></style></defs><path d="M680.416757 459.07972 573.090357 459.07972 573.090357 351.753319c0-30.312376-24.800849-55.113225-55.113225-55.113225l0 0c-30.312376 0-55.113225 24.800849-55.113225 55.113225l0 107.326401L355.537506 459.07972c-30.312376 0-55.113225 24.800849-55.113225 55.113225l0 0c0 30.312376 24.800849 55.113225 55.113225 55.113225l107.326401 0 0 107.326401c0 30.312376 24.800849 55.113225 55.113225 55.113225l0 0c30.312376 0 55.113225-24.800849 55.113225-55.113225L573.090357 569.30617l107.326401 0c30.312376 0 55.113225-24.800849 55.113225-55.113225l0 0C735.529983 483.880569 710.729134 459.07972 680.416757 459.07972z" p-id="4260" fill="#ffffff"></path><path d="M511.771803 76.893274c-239.630682 0-435.106726 195.47195-435.106726 435.103656 0 94.841042 30.642904 182.753277 82.499969 254.379595 13.024641 20.517289 32.243355 42.841737 59.010999 66.24168 77.483722 71.033823 180.62787 114.488521 293.595758 114.488521 103.163591 0 198.122313-36.252669 272.847202-96.638991 0.907673-0.728594 1.814322-1.456165 2.716878-2.192945 0.475837-0.38988 0.954745-0.775666 1.425466-1.165546 22.744004-18.662035 43.799552-39.940664 62.682621-63.755046 59.665915-74.495668 95.433536-168.876222 95.433536-271.356244C946.877505 272.370341 751.405555 76.893274 511.771803 76.893274zM829.009004 763.432473c-66.787102 37.028335-141.208069 57.060577-188.409091 66.422805-90.930989 18.152429-200.3654-12.568247-240.679571-31.591509-68.068282-32.116465-89.183182-64.577784-124.267235-97.739045l-20.070104-19.195178c-47.562249-44.911886-98.123808-39.531342-113.870444-4.776793-22.51069-50.329269-35.056424-106.024755-35.056424-164.555823 0.001023-92.624561 31.394011-178.147376 84.049255-246.521626 68.905346-40.120766 147.548474-61.442374 196.569958-71.193459 91.102904-18.147312 200.535269 12.568247 240.679571 31.592532 68.240197 32.115442 89.182158 64.576761 124.43915 97.91403l20.070104 19.023262c47.082318 44.544519 95.120404 38.818097 109.209284 4.267187 22.610974 50.424436 35.21299 106.243743 35.21299 164.91705C916.885424 606.854345 883.972826 694.26516 829.009004 763.432473z" p-id="4261" fill="#ffffff"></path></svg>