<?xml version="1.0" standalone="no"?><!DOCTYPE svg PUBLIC "-//W3C//DTD SVG 1.1//EN" "http://www.w3.org/Graphics/SVG/1.1/DTD/svg11.dtd"><svg t="1639186829987" class="icon" viewBox="0 0 1024 1024" version="1.1" xmlns="http://www.w3.org/2000/svg" p-id="2407" xmlns:xlink="http://www.w3.org/1999/xlink" width="25" height="25"><defs><style type="text/css"></style></defs><path d="M814.4896 284.5696l-46.2848-126.208S93.0304 124.7232 101.4784 480.1536c0 69.4272 68.352 146.176 286.0544 130.4064 96.768-10.496 255.5392-30.5152 268.1856 13.6704 12.5952 44.1856-109.4656 107.264-197.7344 116.736-88.32 9.472-199.7824 5.2736-255.488 0 30.5152 71.5264 57.856 131.4304 57.856 131.4304s282.88 53.6576 518.4512-90.4192c92.5696-57.856 163.0208-141.9776 140.9024-226.0992-22.0672-84.1216-94.6688-133.5808-300.7488-127.232-146.176 6.2976-243.968 18.944-252.416-26.2656s89.344-119.9104 447.9488-117.8112z" fill="#ffffff" p-id="2408"></path><path d="M618.9056 428.6464c-146.176 6.2976-243.968 18.944-252.416-26.3168-8.3968-45.2096 89.3952-119.9104 448-117.76l-46.2848-126.208S93.0304 124.7232 101.4784 480.1536c0 69.4272 68.352 146.176 286.0544 130.4064 96.768-10.496 255.5392-30.5152 268.1856 13.6704 12.5952 44.1856-109.4656 107.264-197.7344 116.736-88.32 9.472-199.7824 5.2736-255.488 0 30.5152 71.5264 57.856 131.4816 57.856 131.4816s100.2496 18.9952 231.0656 3.9936c171.1104-76.5952 297.6768-234.752 330.3424-425.0624-46.1824-17.3568-111.36-25.5488-202.8544-22.7328z" fill="#ffffff" p-id="2409"></path><path d="M601.0368 429.4656c-136.2432 6.4512-226.4576 16.2304-234.5472-27.0848-7.0144-37.6832 59.8528-95.8464 289.9968-112.9472 10.496-42.0352 16.2816-85.9648 16.896-131.1232-185.6 5.8368-578.304 50.2272-571.904 321.8944 0 69.4272 68.352 146.176 286.0544 130.4064 19.1488-2.0992 40.7552-4.5568 63.1808-6.8096a574.78144 574.78144 0 0 0 150.3232-174.336z" fill="#ffffff" p-id="2410"></path><path d="M482.1504 176.4352C299.2128 206.848 96.8704 284.5696 101.4784 480.2048c0 7.0656 0.768 14.1824 2.2528 21.2992 170.1376-44.9536 309.248-166.2976 378.4192-325.0688z" fill="#ffffff" p-id="2411"></path></svg>