<?xml version="1.0" encoding="UTF-8"?>
<svg width="44px" height="44px" viewBox="0 0 44 44" version="1.1" xmlns="http://www.w3.org/2000/svg" xmlns:xlink="http://www.w3.org/1999/xlink">
    <!-- Generator: Sketch 61 (89581) - https://sketch.com -->
    <title>sunny</title>
    <desc>Created with Sketch.</desc>
    <g id="sunny" stroke="none" stroke-width="1" fill="none" fill-rule="evenodd">
        <g id="Group-2" fill-rule="nonzero">
            <rect id="Rectangle-2" x="0" y="0" width="44" height="44"></rect>
            <g id="brightness-46-copy" transform="translate(0.000000, 1.000000)" fill="#FFFFFF">
                <path d="M21.5,31.5 C15.9771525,31.5 11.5,27.0228475 11.5,21.5 C11.5,15.9771525 15.9771525,11.5 21.5,11.5 C27.0228475,11.5 31.5,15.9771525 31.5,21.5 C31.5,27.0228475 27.0228475,31.5 21.5,31.5 Z M21.5,28.5 C25.3659932,28.5 28.5,25.3659932 28.5,21.5 C28.5,17.6340068 25.3659932,14.5 21.5,14.5 C17.6340068,14.5 14.5,17.6340068 14.5,21.5 C14.5,25.3659932 17.6340068,28.5 21.5,28.5 Z" id="Oval"></path>
                <path d="M21.5,36 C22.3284271,36 23,36.6715729 23,37.5 L23,41.5 C23,42.3284271 22.3284271,43 21.5,43 C20.6715729,43 20,42.3284271 20,41.5 L20,37.5 C20,36.6715729 20.6715729,36 21.5,36 Z M33.8743687,31.7530483 L36.7027958,34.5814755 C37.2885822,35.1672619 37.2885822,36.1170094 36.7027958,36.7027958 C36.1170094,37.2885822 35.1672619,37.2885822 34.5814755,36.7027958 L31.7530483,33.8743687 C31.1672619,33.2885822 31.1672619,32.3388348 31.7530483,31.7530483 C32.3388348,31.1672619 33.2885822,31.1672619 33.8743687,31.7530483 Z M11.2469517,31.7530483 C11.8327381,32.3388348 11.8327381,33.2885822 11.2469517,33.8743687 L8.41852455,36.7027958 C7.83273811,37.2885822 6.88299064,37.2885822 6.2972042,36.7027958 C5.71141777,36.1170094 5.71141777,35.1672619 6.2972042,34.5814755 L9.12563133,31.7530483 C9.71141777,31.1672619 10.6611652,31.1672619 11.2469517,31.7530483 Z M41.5,20 C42.3284271,20 43,20.6715729 43,21.5 C43,22.3284271 42.3284271,23 41.5,23 L37.5,23 C36.6715729,23 36,22.3284271 36,21.5 C36,20.6715729 36.6715729,20 37.5,20 L41.5,20 Z M5.5,20 C6.32842712,20 7,20.6715729 7,21.5 C7,22.3284271 6.32842712,23 5.5,23 L1.5,23 C0.671572875,23 4.72902868e-16,22.3284271 1.6854368e-16,21.5 C-1.35815508e-16,20.6715729 0.671572875,20 1.5,20 L5.5,20 Z M36.7027958,6.2972042 C37.2885822,6.88299064 37.2885822,7.83273811 36.7027958,8.41852455 L33.8743687,11.2469517 C33.2885822,11.8327381 32.3388348,11.8327381 31.7530483,11.2469517 C31.1672619,10.6611652 31.1672619,9.71141777 31.7530483,9.12563133 L34.5814755,6.2972042 C35.1672619,5.71141777 36.1170094,5.71141777 36.7027958,6.2972042 Z M8.41852455,6.2972042 L11.2469517,9.12563133 C11.8327381,9.71141777 11.8327381,10.6611652 11.2469517,11.2469517 C10.6611652,11.8327381 9.71141777,11.8327381 9.12563133,11.2469517 L6.2972042,8.41852455 C5.71141777,7.83273811 5.71141777,6.88299064 6.2972042,6.2972042 C6.88299064,5.71141777 7.83273811,5.71141777 8.41852455,6.2972042 Z M21.5,0 C22.3284271,-1.52179594e-16 23,0.671572875 23,1.5 L23,5.5 C23,6.32842712 22.3284271,7 21.5,7 C20.6715729,7 20,6.32842712 20,5.5 L20,1.5 C20,0.671572875 20.6715729,1.52179594e-16 21.5,0 Z" id="Rectangle-6"></path>
            </g>
        </g>
    </g>
</svg>