<?xml version="1.0" encoding="UTF-8"?>
<svg width="44px" height="44px" viewBox="0 0 44 44" version="1.1" xmlns="http://www.w3.org/2000/svg" xmlns:xlink="http://www.w3.org/1999/xlink">
    <!-- Generator: Sketch 61 (89581) - https://sketch.com -->
    <title>cloudy</title>
    <desc>Created with Sketch.</desc>
    <defs>
        <rect id="path-1" x="0" y="0" width="44" height="44"></rect>
    </defs>
    <g id="cloudy" stroke="none" stroke-width="1" fill="none" fill-rule="evenodd">
        <g id="Group-2">
            <g id="Combined-Shape">
                <mask id="mask-2" fill="white">
                    <use xlink:href="#path-1"></use>
                </mask>
                <g id="Mask" fill-rule="nonzero"></g>
                <path d="M32.8446492,40.991093 C36.2851032,40.8126945 39,37.962024 39,34.5 C39,30.9958624 36.2212602,28.1249744 32.7311291,28.0039975 L30.2806591,27.919058 L29.8761593,25.5007119 C29.1566978,21.199334 25.4129537,18 21,18 C17.1068583,18 13.6909365,20.4948903 12.4682562,24.1245785 L11.902259,25.8048161 L10.1573686,26.1193143 C6.6171346,26.7574045 4,29.8572626 4,33.5 C4,37.5087272 7.15370368,40.8046928 11.1404879,40.9915962 L11.3197475,41 L32.6728748,41 L32.8446492,40.991093 Z M1,33.5 C1,28.3409189 4.72075612,24.0508669 9.62522463,23.1668877 C11.2245266,18.4191484 15.7129709,15 21,15 C26.9480173,15 31.8852883,19.327519 32.8350544,25.0057981 C37.9265917,25.1822838 42,29.3654442 42,34.5 C42,39.5789879 38.0142824,43.7270615 33,43.9870679 L33,44 L11,44 L11,43.9883049 C5.4331832,43.7273284 1,39.1313769 1,33.5 Z" fill="#FFFFFF" fill-rule="nonzero" mask="url(#mask-2)"></path>
                <path d="M35.2173436,21.1328104 C34.7903973,21.8427459 33.8687725,22.0721539 33.158837,21.6452076 C32.4489016,21.2182613 32.2194935,20.2966365 32.6464398,19.5867011 C32.7265587,19.4534778 32.8014595,19.3172037 32.8709536,19.1781743 C33.2827804,18.3542765 33.5,17.4442366 33.5,16.5 C33.5,13.1862915 30.8137085,10.5 27.5,10.5 C25.5437827,10.5 23.7477898,11.4410766 22.6258704,13.0000539 C22.1419711,13.6724623 21.2045986,13.8252791 20.5321902,13.3413798 C19.8597819,12.8574806 19.7069651,11.920108 20.1908643,11.2476997 C21.87066,8.91351838 24.568282,7.5 27.5,7.5 C32.4705627,7.5 36.5,11.5294373 36.5,16.5 C36.5,17.9124922 36.1732456,19.2814271 35.5543942,20.519497 C35.4500266,20.728294 35.3375798,20.9328789 35.2173436,21.1328104 Z" id="Oval-3" fill="#FFFFFF" fill-rule="nonzero" mask="url(#mask-2)"></path>
                <path d="M40.0493392,18.8286894 L41.9514523,19.4467234 C42.7393333,19.7027214 43.1705096,20.5489526 42.9145116,21.3368336 C42.6585135,22.1247147 41.8122823,22.555891 41.0244013,22.2998929 L39.1222883,21.6818589 C38.3344072,21.4258609 37.9032309,20.5796297 38.159229,19.7917487 C38.415227,19.0038676 39.2614582,18.5726913 40.0493392,18.8286894 Z M42.9145116,11.7573068 C43.1705096,12.5451878 42.7393333,13.391419 41.9514523,13.6474171 L40.0493392,14.2654511 C39.2614582,14.5214491 38.415227,14.0902728 38.159229,13.3023918 C37.9032309,12.5145108 38.3344072,11.6682796 39.1222883,11.4122815 L41.0244013,10.7942475 C41.8122823,10.5382495 42.6585135,10.9694258 42.9145116,11.7573068 Z M15.3218698,10.7942475 L17.2239828,11.4122815 C18.0118639,11.6682796 18.4430402,12.5145108 18.1870421,13.3023918 C17.9310441,14.0902728 17.0848129,14.5214491 16.2969319,14.2654511 L14.3948188,13.6474171 C13.6069378,13.391419 13.1757615,12.5451878 13.4317595,11.7573068 C13.6877576,10.9694258 14.5339888,10.5382495 15.3218698,10.7942475 Z M37.283807,4.00730681 C37.9540186,4.49424406 38.1025918,5.43229856 37.6156546,6.10251018 L36.4400841,7.72054417 C35.9531468,8.39075579 35.0150923,8.53932903 34.3448807,8.05239178 C33.6746691,7.56545454 33.5260958,6.62740003 34.0130331,5.95718841 L35.1886036,4.33915442 C35.6755408,3.6689428 36.6135953,3.52036956 37.283807,4.00730681 Z M21.1576675,4.33915442 L22.333238,5.95718841 C22.8201753,6.62740003 22.671602,7.56545454 22.0013904,8.05239178 C21.3311788,8.53932903 20.3931243,8.39075579 19.906187,7.72054417 L18.7306165,6.10251018 C18.2436793,5.43229856 18.3922525,4.49424406 19.0624641,4.00730681 C19.7326758,3.52036956 20.6707303,3.6689428 21.1576675,4.33915442 Z M28.1731356,1.04707022 C29.0015627,1.04707022 29.6731356,1.7186431 29.6731356,2.54707022 L29.6731356,4.54707022 C29.6731356,5.37549735 29.0015627,6.04707022 28.1731356,6.04707022 C27.3447084,6.04707022 26.6731356,5.37549735 26.6731356,4.54707022 L26.6731356,2.54707022 C26.6731356,1.7186431 27.3447084,1.04707022 28.1731356,1.04707022 Z" id="Rectangle-4" fill="#FFFFFF" fill-rule="nonzero" mask="url(#mask-2)" transform="translate(28.173136, 11.710392) rotate(8.000000) translate(-28.173136, -11.710392) "></path>
            </g>
        </g>
    </g>
</svg>