<?xml version="1.0" encoding="UTF-8"?>
<svg width="44px" height="44px" viewBox="0 0 44 44" version="1.1" xmlns="http://www.w3.org/2000/svg" xmlns:xlink="http://www.w3.org/1999/xlink">
    <!-- Generator: Sketch 61 (89581) - https://sketch.com -->
    <title>snowflurry</title>
    <desc>Created with Sketch.</desc>
    <defs>
        <rect id="path-1" x="0" y="0" width="44" height="44"></rect>
    </defs>
    <g id="snowflurry" stroke="none" stroke-width="1" fill="none" fill-rule="evenodd">
        <g id="Group-2">
            <g id="Combined-Shape">
                <mask id="mask-2" fill="white">
                    <use xlink:href="#path-1"></use>
                </mask>
                <g id="Mask" fill-rule="nonzero"></g>
                <g id="Group-6" mask="url(#mask-2)" fill="#FFFFFF" fill-rule="nonzero">
                    <g transform="translate(15.000000, 31.000000)" id="Rectangle-12">
                        <rect transform="translate(6.500000, 6.000000) rotate(90.000000) translate(-6.500000, -6.000000) " x="0.5" y="4.5" width="12" height="3" rx="1.5"></rect>
                        <rect transform="translate(6.500000, 6.000000) rotate(30.000000) translate(-6.500000, -6.000000) " x="0.5" y="4.5" width="12" height="3" rx="1.5"></rect>
                        <rect transform="translate(6.500000, 6.000000) rotate(150.000000) translate(-6.500000, -6.000000) " x="0.5" y="4.5" width="12" height="3" rx="1.5"></rect>
                    </g>
                </g>
                <path d="M34.5569461,42.7676762 C34.7362662,42.7329291 34.8926492,42.6971972 35.0260954,42.6604805 C39.0466262,41.5542623 42,37.8720299 42,33.5 C42,28.3654442 37.9265917,24.1822838 32.8350544,24.0057981 C31.8852883,18.327519 26.9480173,14 21,14 C15.7129709,14 11.2245266,17.4191484 9.62522463,22.1668877 C4.72075612,23.0508669 1,27.3409189 1,32.5 C1,37.5644988 4.58558015,41.7915405 9.35669042,42.7895819 C9.37459218,42.7933267 9.39297873,42.7970605 9.41185007,42.8007834 C10.1669073,42.9497228 10.8997506,42.4583808 11.048704,41.7033263 C11.0618203,41.6368391 11.070069,41.5694836 11.0733844,41.5017962 C11.1124597,40.7040408 10.5741574,39.9929828 9.79573486,39.8141006 C9.78669203,39.8120227 9.77779097,39.80994 9.76903168,39.8078526 C6.4524765,39.0174884 4,36.0343036 4,32.5 C4,28.8572626 6.6171346,25.7574045 10.1573686,25.1193143 L11.902259,24.8048161 L12.4682562,23.1245785 C13.6909365,19.4948903 17.1068583,17 21,17 C25.4129537,17 29.1566978,20.199334 29.8761593,24.5007119 L30.2806591,26.919058 L32.7311291,27.0039975 C36.2212602,27.1249744 39,29.9958624 39,33.5 C39,36.4602126 37.0150983,38.9734556 34.2889142,39.7513626 C34.2568728,39.7605055 34.2229567,39.7695619 34.1871658,39.7785317 C33.4108961,39.9731047 32.880883,40.6898708 32.9223246,41.4890804 C32.9616462,42.2474059 33.6082669,42.8302738 34.3665924,42.7909522 C34.4305086,42.7876379 34.4941154,42.7798648 34.5569461,42.7676762 Z" fill="#FFFFFF" fill-rule="nonzero" mask="url(#mask-2)"></path>
                <path d="M35.2173436,20.1328104 C34.7903973,20.8427459 33.8687725,21.0721539 33.158837,20.6452076 C32.4489016,20.2182613 32.2194935,19.2966365 32.6464398,18.5867011 C32.7265587,18.4534778 32.8014595,18.3172037 32.8709536,18.1781743 C33.2827804,17.3542765 33.5,16.4442366 33.5,15.5 C33.5,12.1862915 30.8137085,9.5 27.5,9.5 C25.5437827,9.5 23.7477898,10.4410766 22.6258704,12.0000539 C22.1419711,12.6724623 21.2045986,12.8252791 20.5321902,12.3413798 C19.8597819,11.8574806 19.7069651,10.920108 20.1908643,10.2476997 C21.87066,7.91351838 24.568282,6.5 27.5,6.5 C32.4705627,6.5 36.5,10.5294373 36.5,15.5 C36.5,16.9124922 36.1732456,18.2814271 35.5543942,19.519497 C35.4500266,19.728294 35.3375798,19.9328789 35.2173436,20.1328104 Z" id="Oval-3" fill="#FFFFFF" fill-rule="nonzero" mask="url(#mask-2)"></path>
                <path d="M40.0493392,17.8286894 L41.9514523,18.4467234 C42.7393333,18.7027214 43.1705096,19.5489526 42.9145116,20.3368336 C42.6585135,21.1247147 41.8122823,21.555891 41.0244013,21.2998929 L39.1222883,20.6818589 C38.3344072,20.4258609 37.9032309,19.5796297 38.159229,18.7917487 C38.415227,18.0038676 39.2614582,17.5726913 40.0493392,17.8286894 Z M42.9145116,10.7573068 C43.1705096,11.5451878 42.7393333,12.391419 41.9514523,12.6474171 L40.0493392,13.2654511 C39.2614582,13.5214491 38.415227,13.0902728 38.159229,12.3023918 C37.9032309,11.5145108 38.3344072,10.6682796 39.1222883,10.4122815 L41.0244013,9.79424753 C41.8122823,9.53824947 42.6585135,9.96942579 42.9145116,10.7573068 Z M15.3218698,9.79424753 L17.2239828,10.4122815 C18.0118639,10.6682796 18.4430402,11.5145108 18.1870421,12.3023918 C17.9310441,13.0902728 17.0848129,13.5214491 16.2969319,13.2654511 L14.3948188,12.6474171 C13.6069378,12.391419 13.1757615,11.5451878 13.4317595,10.7573068 C13.6877576,9.96942579 14.5339888,9.53824947 15.3218698,9.79424753 Z M37.283807,3.00730681 C37.9540186,3.49424406 38.1025918,4.43229856 37.6156546,5.10251018 L36.4400841,6.72054417 C35.9531468,7.39075579 35.0150923,7.53932903 34.3448807,7.05239178 C33.6746691,6.56545454 33.5260958,5.62740003 34.0130331,4.95718841 L35.1886036,3.33915442 C35.6755408,2.6689428 36.6135953,2.52036956 37.283807,3.00730681 Z M21.1576675,3.33915442 L22.333238,4.95718841 C22.8201753,5.62740003 22.671602,6.56545454 22.0013904,7.05239178 C21.3311788,7.53932903 20.3931243,7.39075579 19.906187,6.72054417 L18.7306165,5.10251018 C18.2436793,4.43229856 18.3922525,3.49424406 19.0624641,3.00730681 C19.7326758,2.52036956 20.6707303,2.6689428 21.1576675,3.33915442 Z M28.1731356,0.0470702231 C29.0015627,0.0470702231 29.6731356,0.718643098 29.6731356,1.54707022 L29.6731356,3.54707022 C29.6731356,4.37549735 29.0015627,5.04707022 28.1731356,5.04707022 C27.3447084,5.04707022 26.6731356,4.37549735 26.6731356,3.54707022 L26.6731356,1.54707022 C26.6731356,0.718643098 27.3447084,0.0470702231 28.1731356,0.0470702231 Z" id="Rectangle-4" fill="#FFFFFF" fill-rule="nonzero" mask="url(#mask-2)" transform="translate(28.173136, 10.710392) rotate(8.000000) translate(-28.173136, -10.710392) "></path>
            </g>
        </g>
    </g>
</svg>