<?xml version="1.0" encoding="UTF-8"?>
<svg width="44px" height="44px" viewBox="0 0 44 44" version="1.1" xmlns="http://www.w3.org/2000/svg" xmlns:xlink="http://www.w3.org/1999/xlink">
    <!-- Generator: Sketch 61 (89581) - https://sketch.com -->
    <title>icerain</title>
    <desc>Created with Sketch.</desc>
    <defs>
        <rect id="path-1" x="0" y="0" width="44" height="44"></rect>
    </defs>
    <g id="icerain" stroke="none" stroke-width="1" fill="none" fill-rule="evenodd">
        <g id="Group-2">
            <g id="Combined-Shape">
                <mask id="mask-2" fill="white">
                    <use xlink:href="#path-1"></use>
                </mask>
                <g id="Mask" fill-rule="nonzero"></g>
                <rect id="Rectangle-8" fill="#FFFFFF" fill-rule="nonzero" mask="url(#mask-2)" x="20" y="23" width="3" height="8" rx="1.5"></rect>
                <rect id="Rectangle-8" fill="#FFFFFF" fill-rule="nonzero" mask="url(#mask-2)" x="20" y="35" width="3" height="8" rx="1.5"></rect>
                <polygon id="Polygon" fill="#FFFFFF" fill-rule="nonzero" mask="url(#mask-2)" points="14.5 31 16.6650635 32.25 16.6650635 34.75 14.5 36 12.3349365 34.75 12.3349365 32.25"></polygon>
                <polygon id="Polygon" fill="#FFFFFF" fill-rule="nonzero" mask="url(#mask-2)" points="28.5 36 30.6650635 37.25 30.6650635 39.75 28.5 41 26.3349365 39.75 26.3349365 37.25"></polygon>
                <polygon id="Polygon" fill="#FFFFFF" fill-rule="nonzero" mask="url(#mask-2)" points="28.5 22 30.6650635 23.25 30.6650635 25.75 28.5 27 26.3349365 25.75 26.3349365 23.25"></polygon>
                <polygon id="Polygon" fill="#FFFFFF" fill-rule="nonzero" mask="url(#mask-2)" points="14.5 17 16.6650635 18.25 16.6650635 20.75 14.5 22 12.3349365 20.75 12.3349365 18.25"></polygon>
                <path d="M34.5569461,29.7676762 C34.7362662,29.7329291 34.8926492,29.6971972 35.0260954,29.6604805 C39.0466262,28.5542623 42,24.8720299 42,20.5 C42,15.3654442 37.9265917,11.1822838 32.8350544,11.0057981 C31.8852883,5.32751897 26.9480173,1 21,1 C15.7129709,1 11.2245266,4.41914837 9.62522463,9.16688773 C4.72075612,10.0508669 1,14.3409189 1,19.5 C1,24.5644988 4.58558015,28.7915405 9.35669042,29.7895819 C9.37459218,29.7933267 9.39297873,29.7970605 9.41185007,29.8007834 C10.1669073,29.9497228 10.8997506,29.4583808 11.048704,28.7033263 C11.0618203,28.6368391 11.070069,28.5694836 11.0733844,28.5017962 C11.1124597,27.7040408 10.5741574,26.9929828 9.79573486,26.8141006 C9.78669203,26.8120227 9.77779097,26.80994 9.76903168,26.8078526 C6.4524765,26.0174884 4,23.0343036 4,19.5 C4,15.8572626 6.6171346,12.7574045 10.1573686,12.1193143 L11.902259,11.8048161 L12.4682562,10.1245785 C13.6909365,6.49489033 17.1068583,4 21,4 C25.4129537,4 29.1566978,7.19933403 29.8761593,11.5007119 L30.2806591,13.919058 L32.7311291,14.0039975 C36.2212602,14.1249744 39,16.9958624 39,20.5 C39,23.4602126 37.0150983,25.9734556 34.2889142,26.7513626 C34.2568728,26.7605055 34.2229567,26.7695619 34.1871658,26.7785317 C33.4108961,26.9731047 32.880883,27.6898708 32.9223246,28.4890804 C32.9616462,29.2474059 33.6082669,29.8302738 34.3665924,29.7909522 C34.4305086,29.7876379 34.4941154,29.7798648 34.5569461,29.7676762 Z" fill="#FFFFFF" fill-rule="nonzero" mask="url(#mask-2)"></path>
            </g>
        </g>
    </g>
</svg>