<?xml version="1.0" encoding="UTF-8"?>
<svg width="44px" height="44px" viewBox="0 0 44 44" version="1.1" xmlns="http://www.w3.org/2000/svg" xmlns:xlink="http://www.w3.org/1999/xlink">
    <!-- Generator: Sketch 61 (89581) - https://sketch.com -->
    <title>duststorm</title>
    <desc>Created with Sketch.</desc>
    <defs>
        <rect id="path-1" x="0" y="0" width="44" height="44"></rect>
    </defs>
    <g id="duststorm" stroke="none" stroke-width="1" fill="none" fill-rule="evenodd">
        <g id="Group-2">
            <g id="Combined-Shape">
                <mask id="mask-2" fill="white">
                    <use xlink:href="#path-1"></use>
                </mask>
                <g id="Mask" fill-rule="nonzero"></g>
                <path d="M21,9 L21,12 L1.5,12 C0.671572875,12 1.01453063e-16,11.3284271 0,10.5 C-1.01453063e-16,9.67157288 0.671572875,9 1.5,9 L21,9 Z" fill="#FFFFFF" fill-rule="nonzero" mask="url(#mask-2)"></path>
                <g id="Group-3" mask="url(#mask-2)" fill="#FFFFFF" fill-rule="nonzero">
                    <g transform="translate(22.000000, 27.000000) scale(1, -1) translate(-22.000000, -27.000000) translate(0.000000, 21.000000)" id="Combined-Shape">
                        <path d="M1.5,9 L38,9 L38,9 L38,12 L1.5,12 C0.671572875,12 1.01453063e-16,11.3284271 0,10.5 C-1.01453063e-16,9.67157288 0.671572875,9 1.5,9 Z"></path>
                    </g>
                </g>
                <circle id="Oval-10" fill="#FFFFFF" fill-rule="nonzero" mask="url(#mask-2)" cx="3.5" cy="31.5" r="1.5"></circle>
                <circle id="Oval-10" fill="#FFFFFF" fill-rule="nonzero" mask="url(#mask-2)" cx="3.5" cy="40.5" r="1.5"></circle>
                <circle id="Oval-10" fill="#FFFFFF" fill-rule="nonzero" mask="url(#mask-2)" cx="9.5" cy="36.5" r="1.5"></circle>
                <circle id="Oval-10" fill="#FFFFFF" fill-rule="nonzero" mask="url(#mask-2)" cx="21.5" cy="36.5" r="1.5"></circle>
                <circle id="Oval-10" fill="#FFFFFF" fill-rule="nonzero" mask="url(#mask-2)" cx="15.5" cy="31.5" r="1.5"></circle>
                <circle id="Oval-10" fill="#FFFFFF" fill-rule="nonzero" mask="url(#mask-2)" cx="27.5" cy="31.5" r="1.5"></circle>
                <circle id="Oval-10" fill="#FFFFFF" fill-rule="nonzero" mask="url(#mask-2)" cx="15.5" cy="40.5" r="1.5"></circle>
                <circle id="Oval-10" fill="#FFFFFF" fill-rule="nonzero" mask="url(#mask-2)" cx="27.5" cy="40.5" r="1.5"></circle>
                <path d="M37,15 L37,18 L1.5,18 C0.671572875,18 1.01453063e-16,17.3284271 0,16.5 C-1.01453063e-16,15.6715729 0.671572875,15 1.5,15 L37,15 Z" fill="#FFFFFF" fill-rule="nonzero" mask="url(#mask-2)"></path>
            </g>
        </g>
    </g>
</svg>