<?xml version="1.0" encoding="UTF-8"?>
<svg width="44px" height="44px" viewBox="0 0 44 44" version="1.1" xmlns="http://www.w3.org/2000/svg" xmlns:xlink="http://www.w3.org/1999/xlink">
    <!-- Generator: Sketch 61 (89581) - https://sketch.com -->
    <title>sand</title>
    <desc>Created with Sketch.</desc>
    <defs>
        <rect id="path-1" x="0" y="0" width="44" height="44"></rect>
    </defs>
    <g id="sand" stroke="none" stroke-width="1" fill="none" fill-rule="evenodd">
        <g id="Group-2">
            <g id="Combined-Shape">
                <mask id="mask-2" fill="white">
                    <use xlink:href="#path-1"></use>
                </mask>
                <g id="Mask" fill-rule="nonzero"></g>
                <circle id="Oval-10" fill="#FFFFFF" fill-rule="nonzero" mask="url(#mask-2)" cx="3.5" cy="38.5" r="1.5"></circle>
                <circle id="Oval-10" fill="#FFFFFF" fill-rule="nonzero" mask="url(#mask-2)" cx="9.5" cy="38.5" r="1.5"></circle>
                <circle id="Oval-10" fill="#FFFFFF" fill-rule="nonzero" mask="url(#mask-2)" cx="15.5" cy="38.5" r="1.5"></circle>
                <g id="Group-4" mask="url(#mask-2)" fill="#FFFFFF" fill-rule="nonzero">
                    <g transform="translate(0.000000, 15.000000)">
                        <path d="M1.5,9 L21,9 L21,9 L21,12 L1.5,12 C0.671572875,12 1.01453063e-16,11.3284271 0,10.5 C-1.01453063e-16,9.67157288 0.671572875,9 1.5,9 Z" id="Rectangle-9"></path>
                        <path d="M15,6 L18,6 C18,4.34314575 19.3431458,3 21,3 C22.6568542,3 24,4.34314575 24,6 C24,7.65685425 22.6568542,9 21,9 L21,12 C24.3137085,12 27,9.3137085 27,6 C27,2.6862915 24.3137085,0 21,0 C17.6862915,0 15,2.6862915 15,6 Z M15,6 C15,2.6862915 17.6862915,0 21,0 C24.3137085,0 27,2.6862915 27,6 C27,9.3137085 24.3137085,12 21,12 L21,9 C22.6568542,9 24,7.65685425 24,6 C24,4.34314575 22.6568542,3 21,3 C19.3431458,3 18,4.34314575 18,6 L15,6 Z" id="Oval-11"></path>
                    </g>
                </g>
                <g id="Group-4" mask="url(#mask-2)" fill="#FFFFFF" fill-rule="nonzero">
                    <g transform="translate(16.000000, 36.000000) scale(1, -1) translate(-16.000000, -36.000000) translate(0.000000, 30.000000)">
                        <path d="M1.5,9 L26,9 L26,9 L26,12 L1.5,12 C0.671572875,12 1.01453063e-16,11.3284271 0,10.5 C-1.01453063e-16,9.67157288 0.671572875,9 1.5,9 Z" id="Rectangle-9"></path>
                        <path d="M20,6 L23,6 C23,4.34314575 24.3431458,3 26,3 C27.6568542,3 29,4.34314575 29,6 C29,7.65685425 27.6568542,9 26,9 L26,12 C29.3137085,12 32,9.3137085 32,6 C32,2.6862915 29.3137085,0 26,0 C22.6862915,0 20,2.6862915 20,6 Z M20,6 C20,2.6862915 22.6862915,0 26,0 C29.3137085,0 32,2.6862915 32,6 C32,9.3137085 29.3137085,12 26,12 L26,9 C27.6568542,9 29,7.65685425 29,6 C29,4.34314575 27.6568542,3 26,3 C24.3431458,3 23,4.34314575 23,6 L20,6 Z" id="Oval-11"></path>
                    </g>
                </g>
                <path d="M35.5381272,30.7403555 C35.9428885,30.6581085 36.2748548,30.5710447 36.5340262,30.4791642 C40.2929241,29.1465735 43,25.4060612 43,21 C43,15.5653703 38.8814977,11.1432961 33.750647,11.003413 C32.5937904,5.29611183 27.5486005,1 21.5,1 C16.0958446,1 11.4926745,4.429426 9.74805182,9.23071594 C5.27398782,10.1615085 1.7963602,13.8101231 1.11962328,18.3721055 C1.1180255,18.3828763 1.11643943,18.3938216 1.11486506,18.4049412 C1.00655857,19.1699287 1.53890051,19.8778757 2.3038875,19.9861857 C2.36885348,19.9953838 2.4343861,20 2.5,20 C3.30761319,20 3.9952759,19.4126187 4.12150755,18.6149316 C4.12977344,18.5627076 4.1383292,18.5138617 4.14717482,18.4683938 C4.75483854,15.3449076 7.18638366,12.8278845 10.359094,12.167828 L11.9965001,11.8271791 L12.5676774,10.2552703 C13.9209117,6.53110084 17.4711647,4 21.5,4 C26.0390412,4 29.9205326,7.20906604 30.8104402,11.599386 L31.2843275,13.9372881 L33.668888,14.0022987 C37.1519253,14.0972572 40,17.1692103 40,21 C40,24.0581928 38.1818025,26.6403495 35.6693996,27.5999849 C35.5393808,27.6496468 35.3837906,27.6973693 35.2026288,27.7431525 C34.4121352,27.9428953 33.8738113,28.6744898 33.9182483,29.4886167 C33.9589605,30.2345038 34.5966251,30.8061609 35.3425121,30.7654486 C35.4082416,30.761861 35.4736214,30.7534797 35.5381272,30.7403555 Z M11,31 L11,30.955157 L11,31 Z M11,31 L11,30.955157 L11,31 Z" fill="#FFFFFF" fill-rule="nonzero" mask="url(#mask-2)"></path>
            </g>
        </g>
    </g>
</svg>