<?xml version="1.0" encoding="UTF-8"?>
<svg width="44px" height="44px" viewBox="0 0 44 44" version="1.1" xmlns="http://www.w3.org/2000/svg" xmlns:xlink="http://www.w3.org/1999/xlink">
    <!-- Generator: Sketch 61 (89581) - https://sketch.com -->
    <title>sandstorm</title>
    <desc>Created with Sketch.</desc>
    <defs>
        <rect id="path-1" x="0" y="0" width="44" height="44"></rect>
    </defs>
    <g id="sandstorm" stroke="none" stroke-width="1" fill="none" fill-rule="evenodd">
        <g id="Group-2">
            <g id="Combined-Shape">
                <mask id="mask-2" fill="white">
                    <use xlink:href="#path-1"></use>
                </mask>
                <g id="Mask" fill-rule="nonzero"></g>
                <path d="M33.5,39 C37.6421356,39 41,35.6421356 41,31.5 C41,27.3578644 37.6421356,24 33.5,24 C29.3578644,24 26,27.3578644 26,31.5 C26,35.6421356 29.3578644,39 33.5,39 Z M33.5,42 C27.7010101,42 23,37.2989899 23,31.5 C23,25.7010101 27.7010101,21 33.5,21 C39.2989899,21 44,25.7010101 44,31.5 C44,37.2989899 39.2989899,42 33.5,42 Z" id="Oval-9" fill="#FFFFFF" fill-rule="nonzero" mask="url(#mask-2)"></path>
                <rect id="Rectangle-10" fill="#FFFFFF" fill-rule="nonzero" mask="url(#mask-2)" x="32" y="26" width="3" height="7" rx="1.5"></rect>
                <circle id="Oval-12" fill="#FFFFFF" fill-rule="nonzero" mask="url(#mask-2)" cx="33.5" cy="35.5" r="1.5"></circle>
                <path d="M21,9 L21,12 L1.5,12 C0.671572875,12 1.01453063e-16,11.3284271 0,10.5 C-1.01453063e-16,9.67157288 0.671572875,9 1.5,9 L21,9 Z" fill="#FFFFFF" fill-rule="nonzero" mask="url(#mask-2)"></path>
                <g id="Group-3" mask="url(#mask-2)" fill="#FFFFFF" fill-rule="nonzero">
                    <g transform="translate(10.500000, 22.500000) scale(1, -1) translate(-10.500000, -22.500000) translate(0.000000, 21.000000)" id="Rectangle-9">
                        <rect x="0" y="0" width="21" height="3"></rect>
                    </g>
                </g>
                <path d="M30,11 L33,11 C33,8.790861 34.790861,7 37,7 C39.209139,7 41,8.790861 41,11 C41,13.209139 39.209139,15 37,15 L37,18 C40.8659932,18 44,14.8659932 44,11 C44,7.13400675 40.8659932,4 37,4 C33.1340068,4 30,7.13400675 30,11 Z M30,11 C30,7.13400675 33.1340068,4 37,4 C40.8659932,4 44,7.13400675 44,11 C44,14.8659932 40.8659932,18 37,18 L37,15 C39.209139,15 41,13.209139 41,11 C41,8.790861 39.209139,7 37,7 C34.790861,7 33,8.790861 33,11 L30,11 Z" id="Oval-11" fill="#FFFFFF" fill-rule="nonzero" mask="url(#mask-2)"></path>
                <circle id="Oval-10" fill="#FFFFFF" fill-rule="nonzero" mask="url(#mask-2)" cx="4.5" cy="30.5" r="1.5"></circle>
                <circle id="Oval-10" fill="#FFFFFF" fill-rule="nonzero" mask="url(#mask-2)" cx="16.5" cy="30.5" r="1.5"></circle>
                <circle id="Oval-10" fill="#FFFFFF" fill-rule="nonzero" mask="url(#mask-2)" cx="4.5" cy="39.5" r="1.5"></circle>
                <circle id="Oval-10" fill="#FFFFFF" fill-rule="nonzero" mask="url(#mask-2)" cx="10.5" cy="35.5" r="1.5"></circle>
                <circle id="Oval-10" fill="#FFFFFF" fill-rule="nonzero" mask="url(#mask-2)" cx="16.5" cy="39.5" r="1.5"></circle>
                <path d="M1.5,15 L37,15 L37,15 L37,18 L1.5,18 C0.671572875,18 1.01453063e-16,17.3284271 0,16.5 C-1.01453063e-16,15.6715729 0.671572875,15 1.5,15 Z" id="Rectangle-9" fill="#FFFFFF" fill-rule="nonzero" mask="url(#mask-2)"></path>
            </g>
        </g>
    </g>
</svg>