<?xml version="1.0" encoding="UTF-8"?>
<svg width="44px" height="44px" viewBox="0 0 44 44" version="1.1" xmlns="http://www.w3.org/2000/svg" xmlns:xlink="http://www.w3.org/1999/xlink">
    <!-- Generator: Sketch 61 (89581) - https://sketch.com -->
    <title>strongfog</title>
    <desc>Created with Sketch.</desc>
    <defs>
        <rect id="path-1" x="0" y="0" width="44" height="44"></rect>
    </defs>
    <g id="strongfog" stroke="none" stroke-width="1" fill="none" fill-rule="evenodd">
        <g id="Group-2">
            <g id="Combined-Shape">
                <mask id="mask-2" fill="white">
                    <use xlink:href="#path-1"></use>
                </mask>
                <g id="Mask" fill-rule="nonzero"></g>
                <rect id="Rectangle-7" fill="#FFFFFF" fill-rule="nonzero" mask="url(#mask-2)" x="14" y="30" width="16" height="3" rx="1.5"></rect>
                <rect id="Rectangle-7" fill="#FFFFFF" fill-rule="nonzero" mask="url(#mask-2)" x="14" y="23" width="16" height="3" rx="1.5"></rect>
                <rect id="Rectangle-7" fill="#FFFFFF" fill-rule="nonzero" mask="url(#mask-2)" x="14" y="37" width="16" height="3" rx="1.5"></rect>
                <path d="M34.5569461,32.7676762 C34.7362662,32.7329291 34.8926492,32.6971972 35.0260954,32.6604805 C39.0466262,31.5542623 42,27.8720299 42,23.5 C42,18.3654442 37.9265917,14.1822838 32.8350544,14.0057981 C31.8852883,8.32751897 26.9480173,4 21,4 C15.7129709,4 11.2245266,7.41914837 9.62522463,12.1668877 C4.72075612,13.0508669 1,17.3409189 1,22.5 C1,27.5644988 4.58558015,31.7915405 9.35669042,32.7895819 C9.37459218,32.7933267 9.39297873,32.7970605 9.41185007,32.8007834 C10.1669073,32.9497228 10.8997506,32.4583808 11.048704,31.7033263 C11.0618203,31.6368391 11.070069,31.5694836 11.0733844,31.5017962 C11.1124597,30.7040408 10.5741574,29.9929828 9.79573486,29.8141006 C9.78669203,29.8120227 9.77779097,29.80994 9.76903168,29.8078526 C6.4524765,29.0174884 4,26.0343036 4,22.5 C4,18.8572626 6.6171346,15.7574045 10.1573686,15.1193143 L11.902259,14.8048161 L12.4682562,13.1245785 C13.6909365,9.49489033 17.1068583,7 21,7 C25.4129537,7 29.1566978,10.199334 29.8761593,14.5007119 L30.2806591,16.919058 L32.7311291,17.0039975 C36.2212602,17.1249744 39,19.9958624 39,23.5 C39,26.4602126 37.0150983,28.9734556 34.2889142,29.7513626 C34.2568728,29.7605055 34.2229567,29.7695619 34.1871658,29.7785317 C33.4108961,29.9731047 32.880883,30.6898708 32.9223246,31.4890804 C32.9616462,32.2474059 33.6082669,32.8302738 34.3665924,32.7909522 C34.4305086,32.7876379 34.4941154,32.7798648 34.5569461,32.7676762 Z" fill="#FFFFFF" fill-rule="nonzero" mask="url(#mask-2)"></path>
            </g>
        </g>
    </g>
</svg>