<?xml version="1.0" standalone="no"?><!DOCTYPE svg PUBLIC "-//W3C//DTD SVG 1.1//EN" "http://www.w3.org/Graphics/SVG/1.1/DTD/svg11.dtd"><svg t="1688655544536" class="icon" viewBox="0 0 1024 1024" version="1.1" xmlns="http://www.w3.org/2000/svg" p-id="1244" xmlns:xlink="http://www.w3.org/1999/xlink" width="200" height="200"><path d="M912 784l-37.3-37.3c-0.9-0.9-2.4-0.7-3.1 0.3-33.3 49.6-76 92.3-125.6 125.6-1 0.7-1.2 2.2-0.3 3.1l36.5 36.5c34.9 34.9 91.5 36.7 127.5 3 37.8-35.4 38.6-94.8 2.3-131.2z" fill="#F9DB88" p-id="1245"></path><path d="M903.2 493.8c0-226.7-183.8-410.5-410.5-410.5S82.2 267.1 82.2 493.8 266 904.3 492.7 904.3s410.5-183.8 410.5-410.5zM492.7 726.4C364.2 726.4 260 622.3 260 493.8s104.2-232.7 232.7-232.7 232.7 104.2 232.7 232.7c-0.1 128.5-104.2 232.6-232.7 232.6z" fill="#009F72" p-id="1246"></path></svg>